# xmcd
#
# Track frame offsets:
# 150
# 17934
# 36708
# 57454
# 77458
# 94352
# 111689
# 130458
# 148957
# 169702
# 182998
# 203461
# 222229
#
# Disc length: 3129 seconds
#
#
# Revision: 0
# Processed by: cddbd v1.5.1PL0 Copyright (c) Steve Scherf et al.
# Submitted via: FreeRIP 2.93 
#
DISCID=ce0c370d
DTITLE=Lee Ann Womack - Theres More Where That Came From
DYEAR=2005
DGENRE=Country
TTITLE0=There's More Where That Came From
TTITLE1=One's A Couple
TTITLE2=I May Hate Myself In The Morning
TTITLE3=The Last Time
TTITLE4=He Oughta Know That By Now
TTITLE5=Twenty Years And Two Husbands Ago
TTITLE6=Happiness
TTITLE7=When You Get To Me
TTITLE8=Painless
TTITLE9=What I Miss About Heaven
TTITLE10=Waiting For The Sun To Shine
TTITLE11=Stubborn (Psalm 151)
TTITLE12=Someone I used To Know
EXTD=
EXTT0=
EXTT1=
EXTT2=
EXTT3=
EXTT4=
EXTT5=
EXTT6=
EXTT7=
EXTT8=
EXTT9=
EXTT10=
EXTT11=
EXTT12=
PLAYORDER=
